<?xml version="1.0" encoding="UTF-8"?>
<svg xmlns="http://www.w3.org/2000/svg" xmlns:xlink="http://www.w3.org/1999/xlink" width="504pt" height="553.499988pt" viewBox="0 0 504 553.499988" version="1.2">
<defs>
<filter id="alpha" filterUnits="objectBoundingBox" x="0%" y="0%" width="100%" height="100%">
  <feColorMatrix type="matrix" in="SourceGraphic" values="0 0 0 0 1 0 0 0 0 1 0 0 0 0 1 0 0 0 1 0"/>
</filter>
<mask id="mask0">
  <g filter="url(#alpha)">
<rect x="0" y="0" width="504" height="553.499988" style="fill:rgb(0%,0%,0%);fill-opacity:0.3569;stroke:none;"/>
  </g>
</mask>
<clipPath id="clip2">
  <path d="M 125 0.609375 L 251 0.609375 L 251 110 L 125 110 Z M 125 0.609375 "/>
</clipPath>
<mask id="mask1">
  <g filter="url(#alpha)">
<rect x="0" y="0" width="498" height="545" style="fill:rgb(0%,0%,0%);fill-opacity:0.098;stroke:none;"/>
  </g>
</mask>
<clipPath id="clip4">
  <path d="M 0.273438 0.609375 L 125.679688 0.609375 L 125.679688 109 L 0.273438 109 Z M 0.273438 0.609375 "/>
</clipPath>
<clipPath id="clip3">
  <rect x="0" y="0" width="126" height="110"/>
</clipPath>
<g id="surface6" clip-path="url(#clip3)">
<g clip-path="url(#clip4)" clip-rule="nonzero">
<path style=" stroke:none;fill-rule:nonzero;fill:rgb(100%,100%,100%);fill-opacity:1;" d="M 125.117188 1.597656 C 123.21875 1.339844 121.3125 1.132812 119.402344 0.976562 C 117.492188 0.820312 115.578125 0.714844 113.660156 0.65625 C 111.746094 0.601562 109.828125 0.59375 107.914062 0.636719 C 105.996094 0.679688 104.082031 0.773438 102.171875 0.917969 C 100.257812 1.0625 98.351562 1.257812 96.453125 1.5 C 94.550781 1.746094 92.65625 2.039062 90.769531 2.378906 C 88.882812 2.722656 87.007812 3.117188 85.144531 3.554688 C 83.277344 3.996094 81.425781 4.488281 79.585938 5.023438 C 77.746094 5.5625 75.921875 6.148438 74.109375 6.78125 C 72.300781 7.417969 70.511719 8.097656 68.738281 8.824219 C 66.964844 9.550781 65.210938 10.324219 63.476562 11.144531 C 61.742188 11.964844 60.035156 12.828125 58.34375 13.738281 C 56.65625 14.644531 54.996094 15.597656 53.355469 16.59375 C 51.71875 17.589844 50.109375 18.628906 48.523438 19.707031 C 46.941406 20.789062 45.386719 21.910156 43.859375 23.070312 C 42.335938 24.234375 40.84375 25.433594 39.378906 26.671875 C 37.917969 27.914062 36.488281 29.191406 35.09375 30.503906 C 33.699219 31.820312 32.339844 33.171875 31.015625 34.554688 C 29.691406 35.941406 28.402344 37.363281 27.152344 38.816406 C 25.902344 40.269531 24.691406 41.753906 23.519531 43.269531 C 22.34375 44.785156 21.214844 46.332031 20.121094 47.910156 C 19.03125 49.484375 17.980469 51.089844 16.972656 52.71875 C 15.964844 54.351562 15 56.007812 14.078125 57.6875 C 13.160156 59.371094 12.28125 61.074219 11.449219 62.800781 C 10.617188 64.527344 9.832031 66.277344 9.09375 68.046875 C 8.351562 69.8125 7.660156 71.601562 7.011719 73.40625 C 6.367188 75.210938 5.765625 77.03125 5.214844 78.867188 C 4.664062 80.703125 4.160156 82.550781 3.707031 84.414062 C 3.25 86.277344 2.847656 88.152344 2.488281 90.035156 C 2.132812 91.917969 1.828125 93.808594 1.570312 95.710938 C 1.3125 97.609375 1.105469 99.515625 0.945312 101.425781 C 0.789062 103.335938 0.679688 105.25 0.621094 107.167969 C 0.601562 107.660156 0.59375 108.15625 0.585938 108.648438 C 10.136719 107.277344 20.03125 106.101562 30.1875 105.121094 C 30.339844 101.949219 30.628906 98.789062 31.058594 95.640625 C 31.488281 92.492188 32.050781 89.367188 32.75 86.269531 C 33.449219 83.167969 34.28125 80.105469 35.246094 77.078125 C 36.210938 74.050781 37.304688 71.074219 38.527344 68.140625 C 39.75 65.207031 41.097656 62.335938 42.570312 59.519531 C 44.042969 56.703125 45.636719 53.957031 47.347656 51.28125 C 49.058594 48.605469 50.878906 46.007812 52.816406 43.488281 C 54.753906 40.96875 56.796875 38.539062 58.941406 36.199219 C 61.089844 33.855469 63.332031 31.613281 65.675781 29.464844 C 68.015625 27.320312 70.449219 25.277344 72.964844 23.34375 C 75.484375 21.40625 78.082031 19.585938 80.761719 17.875 C 83.4375 16.164062 86.183594 14.574219 89 13.101562 C 91.8125 11.628906 94.6875 10.28125 97.621094 9.058594 C 100.550781 7.835938 103.53125 6.742188 106.558594 5.777344 C 109.585938 4.816406 112.648438 3.984375 115.746094 3.285156 C 118.84375 2.585938 121.96875 2.023438 125.117188 1.597656 Z M 125.117188 1.597656 "/>
</g>
</g>
<clipPath id="clip5">
  <path d="M 1.054688 101 L 462 101 L 462 230 L 1.054688 230 Z M 1.054688 101 "/>
</clipPath>
<clipPath id="clip6">
  <path d="M 402 538 L 420 538 L 420 544.617188 L 402 544.617188 Z M 402 538 "/>
</clipPath>
<clipPath id="clip7">
  <path d="M 383 538 L 400 538 L 400 544.617188 L 383 544.617188 Z M 383 538 "/>
</clipPath>
<clipPath id="clip8">
  <path d="M 321 543 L 497 543 L 497 544.617188 L 321 544.617188 Z M 321 543 "/>
</clipPath>
<clipPath id="clip1">
  <rect x="0" y="0" width="498" height="545"/>
</clipPath>
<g id="surface8" clip-path="url(#clip1)">
<path style=" stroke:none;fill-rule:nonzero;fill:rgb(0%,74.899292%,65.098572%);fill-opacity:1;" d="M 345.515625 111.023438 C 311.15625 105.539062 272.035156 102.613281 231.289062 102.613281 C 193.996094 102.613281 158.070312 105.0625 125.917969 109.675781 C 125.925781 109.183594 125.933594 108.6875 125.953125 108.195312 C 126.007812 106.425781 126.101562 104.65625 126.242188 102.890625 C 126.378906 101.128906 126.558594 99.367188 126.78125 97.609375 C 127.007812 95.855469 127.273438 94.105469 127.578125 92.363281 C 127.886719 90.617188 128.238281 88.882812 128.628906 87.15625 C 129.019531 85.429688 129.453125 83.714844 129.929688 82.007812 C 130.402344 80.304688 130.917969 78.609375 131.476562 76.929688 C 132.03125 75.25 132.628906 73.585938 133.265625 71.933594 C 133.902344 70.28125 134.578125 68.644531 135.296875 67.027344 C 136.011719 65.40625 136.765625 63.808594 137.558594 62.226562 C 138.351562 60.640625 139.183594 59.078125 140.054688 57.539062 C 140.921875 55.996094 141.828125 54.476562 142.769531 52.976562 C 143.714844 51.480469 144.691406 50.003906 145.707031 48.554688 C 146.71875 47.101562 147.765625 45.675781 148.851562 44.277344 C 149.933594 42.875 151.050781 41.5 152.199219 40.15625 C 153.347656 38.808594 154.527344 37.492188 155.742188 36.203125 C 156.953125 34.914062 158.199219 33.652344 159.472656 32.425781 C 160.746094 31.195312 162.046875 29.996094 163.378906 28.832031 C 164.710938 27.664062 166.070312 26.53125 167.457031 25.433594 C 168.84375 24.332031 170.257812 23.265625 171.695312 22.234375 C 173.132812 21.199219 174.59375 20.203125 176.082031 19.242188 C 177.566406 18.28125 179.074219 17.355469 180.605469 16.46875 C 182.136719 15.578125 183.6875 14.730469 185.261719 13.914062 C 186.832031 13.101562 188.425781 12.328125 190.035156 11.589844 C 191.644531 10.855469 193.269531 10.15625 194.914062 9.5 C 196.554688 8.839844 198.214844 8.222656 199.886719 7.648438 C 201.5625 7.070312 203.246094 6.53125 204.945312 6.035156 C 206.644531 5.539062 208.355469 5.085938 210.078125 4.671875 C 211.796875 4.257812 213.527344 3.886719 215.265625 3.558594 C 217.003906 3.226562 218.75 2.941406 220.503906 2.695312 C 222.257812 2.449219 224.015625 2.246094 225.777344 2.085938 C 227.539062 1.925781 229.304688 1.808594 231.074219 1.734375 C 232.84375 1.660156 234.613281 1.628906 236.382812 1.640625 C 238.152344 1.648438 239.921875 1.703125 241.6875 1.800781 C 243.457031 1.898438 245.21875 2.035156 246.980469 2.21875 C 248.742188 2.398438 250.496094 2.625 252.246094 2.890625 C 253.996094 3.15625 255.738281 3.464844 257.472656 3.816406 C 259.207031 4.167969 260.933594 4.558594 262.648438 4.992188 C 264.367188 5.429688 266.070312 5.902344 267.761719 6.421875 C 269.457031 6.9375 271.136719 7.492188 272.800781 8.09375 C 274.46875 8.691406 276.117188 9.328125 277.753906 10.003906 C 279.386719 10.683594 281.003906 11.402344 282.605469 12.15625 C 284.207031 12.914062 285.789062 13.707031 287.351562 14.539062 C 288.910156 15.371094 290.453125 16.242188 291.972656 17.148438 C 293.492188 18.054688 294.992188 19 296.464844 19.976562 C 297.9375 20.957031 299.390625 21.972656 300.8125 23.023438 C 302.238281 24.070312 303.640625 25.15625 305.011719 26.273438 C 306.382812 27.390625 307.730469 28.539062 309.046875 29.722656 C 310.363281 30.902344 311.652344 32.117188 312.910156 33.363281 C 314.171875 34.605469 315.398438 35.878906 316.59375 37.183594 C 317.792969 38.488281 318.957031 39.820312 320.089844 41.179688 C 321.222656 42.542969 322.320312 43.929688 323.386719 45.34375 C 324.453125 46.753906 325.484375 48.195312 326.480469 49.65625 C 327.476562 51.121094 328.4375 52.605469 329.359375 54.117188 C 330.285156 55.625 331.171875 57.15625 332.023438 58.710938 C 332.871094 60.261719 333.683594 61.835938 334.457031 63.429688 C 335.230469 65.019531 335.96875 66.628906 336.664062 68.257812 C 337.359375 69.882812 338.015625 71.527344 338.632812 73.1875 C 339.25 74.847656 339.828125 76.519531 340.363281 78.207031 C 340.898438 79.894531 341.394531 81.59375 341.847656 83.304688 C 342.300781 85.015625 342.714844 86.738281 343.082031 88.46875 C 343.453125 90.199219 343.78125 91.9375 344.070312 93.683594 C 344.355469 95.429688 344.601562 97.183594 344.800781 98.941406 C 345.003906 100.703125 345.164062 102.464844 345.277344 104.230469 C 345.394531 105.996094 345.46875 107.765625 345.5 109.535156 C 345.507812 110.035156 345.515625 110.53125 345.515625 111.023438 Z M 345.515625 111.023438 "/>
<g clip-path="url(#clip2)" clip-rule="nonzero">
<use xlink:href="#surface6" transform="matrix(1,0,0,1,125,0)" mask="url(#mask1)"/>
</g>
<g clip-path="url(#clip5)" clip-rule="nonzero">
<path style=" stroke:none;fill-rule:nonzero;fill:rgb(24.708557%,23.919678%,33.729553%);fill-opacity:1;" d="M 393.550781 119.738281 C 377.722656 115.445312 361.707031 112.046875 345.5 109.535156 C 318.9375 105.417969 292.226562 102.851562 265.363281 101.832031 C 254.183594 101.375 242.796875 101.140625 231.289062 101.140625 C 222.164062 101.140625 213.113281 101.289062 204.191406 101.582031 C 177.992188 102.355469 151.914062 104.5625 125.953125 108.195312 C 106.734375 110.839844 87.757812 114.6875 69.027344 119.738281 C 25.390625 131.800781 1.359375 147.972656 1.359375 165.265625 C 1.359375 182.554688 25.390625 198.726562 69.027344 210.792969 C 99.710938 219.285156 137.546875 225.070312 178.773438 227.722656 C 195.789062 228.828125 213.378906 229.390625 231.289062 229.390625 C 249.253906 229.390625 266.902344 228.820312 283.972656 227.714844 C 321.488281 225.292969 356.199219 220.273438 385.25 212.976562 C 385.40625 212.929688 385.554688 212.894531 385.707031 212.855469 C 387.667969 212.371094 389.597656 211.863281 391.507812 211.351562 C 392.191406 211.160156 392.871094 210.976562 393.550781 210.792969 C 393.585938 210.777344 393.625 210.765625 393.667969 210.757812 C 394.316406 210.578125 394.957031 210.394531 395.597656 210.21875 C 396.878906 209.851562 398.148438 209.488281 399.394531 209.113281 C 399.453125 209.097656 399.503906 209.082031 399.554688 209.070312 C 400.636719 208.746094 401.699219 208.421875 402.753906 208.09375 C 403.617188 207.824219 404.472656 207.558594 405.316406 207.285156 C 405.9375 207.085938 406.550781 206.886719 407.152344 206.6875 C 407.59375 206.539062 408.03125 206.398438 408.457031 206.253906 C 409.039062 206.0625 409.621094 205.863281 410.195312 205.664062 C 410.441406 205.582031 410.683594 205.5 410.917969 205.414062 C 411.472656 205.226562 412.007812 205.035156 412.546875 204.84375 C 413.128906 204.640625 413.710938 204.425781 414.285156 204.21875 C 414.765625 204.050781 415.246094 203.871094 415.714844 203.695312 C 416.113281 203.539062 416.503906 203.394531 416.902344 203.246094 C 417.984375 202.839844 419.046875 202.421875 420.09375 202.007812 C 420.617188 201.792969 421.140625 201.585938 421.65625 201.375 C 422.164062 201.167969 422.679688 200.953125 423.183594 200.738281 C 424.007812 200.394531 424.816406 200.046875 425.613281 199.699219 C 425.996094 199.523438 426.386719 199.355469 426.761719 199.191406 C 427.050781 199.058594 427.332031 198.933594 427.617188 198.800781 C 427.824219 198.714844 428.03125 198.617188 428.230469 198.519531 C 428.972656 198.183594 429.710938 197.835938 430.433594 197.488281 C 433.203125 196.164062 435.792969 194.804688 438.195312 193.421875 C 453.265625 184.789062 461.214844 175.214844 461.214844 165.265625 C 461.214844 147.972656 437.183594 131.800781 393.550781 119.738281 Z M 393.152344 209.378906 C 362.429688 217.875 324.488281 223.664062 283.152344 226.292969 C 266.34375 227.363281 248.96875 227.914062 231.289062 227.914062 C 213.667969 227.914062 196.347656 227.371094 179.589844 226.300781 C 138.1875 223.675781 100.191406 217.890625 69.421875 209.378906 C 26.480469 197.496094 2.832031 181.835938 2.832031 165.265625 C 2.835938 163.796875 3.015625 162.347656 3.378906 160.921875 C 7.136719 145.976562 30.253906 131.988281 69.421875 121.152344 C 88.015625 116.144531 106.847656 112.316406 125.917969 109.675781 C 152.03125 106.023438 178.265625 103.808594 204.625 103.042969 C 213.410156 102.753906 222.296875 102.613281 231.289062 102.613281 C 242.644531 102.613281 253.875 102.84375 264.914062 103.285156 C 291.933594 104.292969 318.796875 106.875 345.515625 111.023438 C 361.578125 113.523438 377.457031 116.898438 393.152344 121.152344 C 432.3125 131.988281 455.421875 145.96875 459.1875 160.910156 C 459.554688 162.335938 459.742188 163.789062 459.742188 165.265625 C 459.742188 181.835938 436.09375 197.496094 393.152344 209.378906 Z M 393.152344 209.378906 "/>
</g>
<path style=" stroke:none;fill-rule:nonzero;fill:rgb(24.708557%,23.919678%,33.729553%);fill-opacity:1;" d="M 460.796875 165.9375 C 460.796875 175.78125 452.683594 185.097656 438.195312 193.421875 C 435.785156 194.804688 433.191406 196.164062 430.433594 197.488281 C 429.710938 197.835938 428.972656 198.183594 428.230469 198.519531 C 428.03125 198.617188 427.824219 198.710938 427.617188 198.800781 C 427.332031 198.933594 427.050781 199.058594 426.761719 199.191406 C 426.386719 199.355469 425.996094 199.523438 425.613281 199.699219 C 424.816406 200.046875 424.007812 200.394531 423.183594 200.738281 C 422.679688 200.953125 422.164062 201.167969 421.65625 201.375 C 421.140625 201.585938 420.617188 201.792969 420.09375 202.007812 C 419.046875 202.421875 417.984375 202.839844 416.902344 203.246094 C 416.503906 203.394531 416.113281 203.539062 415.714844 203.695312 C 415.246094 203.871094 414.765625 204.050781 414.285156 204.21875 C 413.710938 204.425781 413.128906 204.640625 412.546875 204.84375 C 412.007812 205.035156 411.472656 205.226562 410.917969 205.414062 C 410.683594 205.5 410.441406 205.582031 410.195312 205.664062 C 409.621094 205.863281 409.039062 206.0625 408.457031 206.253906 C 408.03125 206.398438 407.59375 206.539062 407.152344 206.6875 C 406.546875 206.886719 405.9375 207.085938 405.316406 207.285156 C 404.46875 207.558594 403.617188 207.824219 402.753906 208.09375 C 401.699219 208.417969 400.636719 208.742188 399.554688 209.070312 C 399.503906 209.082031 399.453125 209.097656 399.394531 209.113281 C 398.148438 209.488281 396.878906 209.851562 395.597656 210.21875 C 394.957031 210.394531 394.316406 210.578125 393.667969 210.757812 C 393.625 210.765625 393.585938 210.777344 393.550781 210.792969 C 392.871094 210.976562 392.191406 211.160156 391.507812 211.351562 C 389.605469 211.855469 387.667969 212.363281 385.707031 212.855469 C 385.554688 212.894531 385.40625 212.929688 385.25 212.976562 C 356.988281 220.035156 322.316406 225.179688 283.941406 227.664062 C 267.132812 228.746094 249.609375 229.324219 231.605469 229.324219 C 213.4375 229.324219 195.765625 228.742188 178.824219 227.636719 C 77.683594 221.039062 2.414062 195.917969 2.414062 165.933594 C 2.421875 164.101562 2.695312 162.308594 3.238281 160.554688 C 3.28125 160.679688 3.328125 160.796875 3.378906 160.921875 C 13.894531 188.546875 88.527344 210.875 185.359375 216.320312 C 200.195312 217.160156 215.5625 217.597656 231.289062 217.597656 C 247.082031 217.597656 262.503906 217.152344 277.398438 216.3125 C 374.152344 210.84375 448.710938 188.511719 459.1875 160.910156 C 459.367188 160.464844 459.519531 160.023438 459.652344 159.582031 C 460.40625 161.632812 460.789062 163.75 460.796875 165.9375 Z M 460.796875 165.9375 "/>
<path style=" stroke:none;fill-rule:nonzero;fill:rgb(24.708557%,23.919678%,33.729553%);fill-opacity:1;" d="M 68.914062 158 C 56.648438 158 43.613281 155.363281 43.613281 150.472656 C 43.613281 145.582031 56.648438 142.941406 68.914062 142.941406 C 81.179688 142.941406 94.214844 145.582031 94.214844 150.472656 C 94.214844 155.363281 81.179688 158 68.914062 158 Z M 68.914062 144.414062 C 54.875 144.414062 45.089844 147.605469 45.089844 150.472656 C 45.089844 153.335938 54.875 156.527344 68.914062 156.527344 C 82.957031 156.527344 92.742188 153.335938 92.742188 150.472656 C 92.742188 147.605469 82.957031 144.414062 68.914062 144.414062 Z M 68.914062 144.414062 "/>
<path style=" stroke:none;fill-rule:nonzero;fill:rgb(24.708557%,23.919678%,33.729553%);fill-opacity:1;" d="M 121.238281 192.644531 C 108.972656 192.644531 95.9375 190.003906 95.9375 185.113281 C 95.9375 180.222656 108.972656 177.582031 121.238281 177.582031 C 133.503906 177.582031 146.539062 180.222656 146.539062 185.113281 C 146.539062 190.003906 133.503906 192.644531 121.238281 192.644531 Z M 121.238281 179.058594 C 107.195312 179.058594 97.410156 182.25 97.410156 185.113281 C 97.410156 187.976562 107.195312 191.167969 121.238281 191.167969 C 135.277344 191.167969 145.0625 187.976562 145.0625 185.113281 C 145.0625 182.25 135.277344 179.058594 121.238281 179.058594 Z M 121.238281 179.058594 "/>
<path style=" stroke:none;fill-rule:nonzero;fill:rgb(24.708557%,23.919678%,33.729553%);fill-opacity:1;" d="M 393.171875 158 C 380.90625 158 367.871094 155.363281 367.871094 150.472656 C 367.871094 145.582031 380.90625 142.941406 393.171875 142.941406 C 405.4375 142.941406 418.472656 145.582031 418.472656 150.472656 C 418.472656 155.363281 405.4375 158 393.171875 158 Z M 393.171875 144.414062 C 379.132812 144.414062 369.347656 147.605469 369.347656 150.472656 C 369.347656 153.335938 379.132812 156.527344 393.171875 156.527344 C 407.214844 156.527344 417 153.335938 417 150.472656 C 417 147.605469 407.214844 144.414062 393.171875 144.414062 Z M 393.171875 144.414062 "/>
<path style=" stroke:none;fill-rule:nonzero;fill:rgb(24.708557%,23.919678%,33.729553%);fill-opacity:1;" d="M 340.847656 192.644531 C 328.585938 192.644531 315.550781 190.003906 315.550781 185.113281 C 315.550781 180.222656 328.585938 177.582031 340.847656 177.582031 C 353.113281 177.582031 366.148438 180.222656 366.148438 185.113281 C 366.148438 190.003906 353.113281 192.644531 340.847656 192.644531 Z M 340.847656 179.058594 C 326.808594 179.058594 317.023438 182.25 317.023438 185.113281 C 317.023438 187.976562 326.808594 191.167969 340.847656 191.167969 C 354.890625 191.167969 364.675781 187.976562 364.675781 185.113281 C 364.675781 182.25 354.890625 179.058594 340.847656 179.058594 Z M 340.847656 179.058594 "/>
<path style=" stroke:none;fill-rule:nonzero;fill:rgb(24.708557%,23.919678%,33.729553%);fill-opacity:1;" d="M 231.042969 208.859375 C 218.777344 208.859375 205.742188 206.21875 205.742188 201.328125 C 205.742188 196.4375 218.777344 193.796875 231.042969 193.796875 C 243.308594 193.796875 256.34375 196.4375 256.34375 201.328125 C 256.34375 206.21875 243.308594 208.859375 231.042969 208.859375 Z M 231.042969 195.273438 C 217.003906 195.273438 207.21875 198.464844 207.21875 201.328125 C 207.21875 204.191406 217.003906 207.386719 231.042969 207.386719 C 245.085938 207.386719 254.871094 204.191406 254.871094 201.328125 C 254.871094 198.464844 245.085938 195.273438 231.042969 195.273438 Z M 231.042969 195.273438 "/>
<path style=" stroke:none;fill-rule:nonzero;fill:rgb(18.429565%,18.03894%,25.489807%);fill-opacity:1;" d="M 280.65625 332.808594 C 280.65625 333.820312 280.605469 334.832031 280.507812 335.84375 C 280.40625 336.851562 280.257812 337.851562 280.0625 338.847656 C 279.863281 339.84375 279.617188 340.824219 279.324219 341.796875 C 279.027344 342.765625 278.6875 343.71875 278.296875 344.65625 C 277.910156 345.59375 277.476562 346.507812 277 347.402344 C 276.523438 348.296875 276 349.167969 275.4375 350.011719 C 274.875 350.851562 274.269531 351.667969 273.628906 352.449219 C 272.984375 353.234375 272.304688 353.984375 271.585938 354.703125 C 270.871094 355.417969 270.121094 356.101562 269.335938 356.742188 C 268.550781 357.386719 267.738281 357.988281 266.894531 358.554688 C 266.050781 359.117188 265.183594 359.636719 264.289062 360.117188 C 263.394531 360.59375 262.480469 361.027344 261.542969 361.414062 C 260.605469 361.804688 259.652344 362.144531 258.683594 362.4375 C 257.710938 362.734375 256.730469 362.980469 255.734375 363.175781 C 254.742188 363.375 253.738281 363.523438 252.730469 363.621094 C 251.71875 363.722656 250.707031 363.773438 249.695312 363.773438 C 248.679688 363.773438 247.667969 363.722656 246.660156 363.621094 C 245.652344 363.523438 244.648438 363.375 243.65625 363.175781 C 242.660156 362.980469 241.675781 362.734375 240.707031 362.4375 C 239.738281 362.144531 238.785156 361.804688 237.847656 361.414062 C 236.910156 361.027344 235.996094 360.59375 235.101562 360.117188 C 234.207031 359.636719 233.335938 359.117188 232.492188 358.554688 C 231.652344 357.988281 230.835938 357.386719 230.054688 356.742188 C 229.269531 356.101562 228.519531 355.417969 227.800781 354.703125 C 227.085938 353.984375 226.40625 353.234375 225.761719 352.449219 C 225.117188 351.667969 224.515625 350.851562 223.953125 350.011719 C 223.386719 349.167969 222.867188 348.296875 222.390625 347.402344 C 221.910156 346.507812 221.480469 345.59375 221.089844 344.65625 C 220.703125 343.71875 220.363281 342.765625 220.066406 341.796875 C 219.773438 340.824219 219.527344 339.84375 219.328125 338.847656 C 219.132812 337.851562 218.984375 336.851562 218.882812 335.84375 C 218.785156 334.832031 218.734375 333.820312 218.734375 332.808594 C 218.734375 331.792969 218.785156 330.78125 218.882812 329.773438 C 218.984375 328.761719 219.132812 327.761719 219.328125 326.765625 C 219.527344 325.769531 219.773438 324.789062 220.066406 323.816406 C 220.363281 322.847656 220.703125 321.894531 221.089844 320.957031 C 221.480469 320.019531 221.910156 319.105469 222.390625 318.210938 C 222.867188 317.316406 223.386719 316.445312 223.953125 315.601562 C 224.515625 314.761719 225.117188 313.945312 225.761719 313.164062 C 226.40625 312.378906 227.085938 311.628906 227.800781 310.910156 C 228.519531 310.195312 229.269531 309.511719 230.054688 308.871094 C 230.835938 308.226562 231.652344 307.625 232.492188 307.058594 C 233.335938 306.496094 234.207031 305.976562 235.101562 305.496094 C 235.996094 305.019531 236.910156 304.585938 237.847656 304.199219 C 238.785156 303.808594 239.738281 303.46875 240.707031 303.175781 C 241.675781 302.878906 242.660156 302.632812 243.65625 302.4375 C 244.648438 302.238281 245.652344 302.089844 246.660156 301.992188 C 247.667969 301.890625 248.679688 301.839844 249.695312 301.839844 C 250.707031 301.839844 251.71875 301.890625 252.730469 301.992188 C 253.738281 302.089844 254.742188 302.238281 255.734375 302.4375 C 256.730469 302.632812 257.710938 302.878906 258.683594 303.175781 C 259.652344 303.46875 260.605469 303.808594 261.542969 304.199219 C 262.480469 304.585938 263.394531 305.019531 264.289062 305.496094 C 265.183594 305.976562 266.050781 306.496094 266.894531 307.058594 C 267.738281 307.625 268.550781 308.226562 269.335938 308.871094 C 270.121094 309.511719 270.871094 310.195312 271.585938 310.910156 C 272.304688 311.628906 272.984375 312.378906 273.628906 313.164062 C 274.269531 313.945312 274.875 314.761719 275.4375 315.601562 C 276 316.445312 276.523438 317.316406 277 318.210938 C 277.476562 319.105469 277.910156 320.019531 278.296875 320.957031 C 278.6875 321.894531 279.027344 322.847656 279.324219 323.816406 C 279.617188 324.789062 279.863281 325.769531 280.0625 326.765625 C 280.257812 327.761719 280.40625 328.761719 280.507812 329.773438 C 280.605469 330.78125 280.65625 331.792969 280.65625 332.808594 Z M 280.65625 332.808594 "/>
<path style=" stroke:none;fill-rule:nonzero;fill:rgb(18.429565%,18.03894%,25.489807%);fill-opacity:1;" d="M 222.851562 360.699219 L 237.921875 353.152344 L 242.132812 361.5625 L 227.066406 369.109375 Z M 222.851562 360.699219 "/>
<path style=" stroke:none;fill-rule:nonzero;fill:rgb(18.429565%,18.03894%,25.489807%);fill-opacity:1;" d="M 224.125 361.488281 C 224.554688 361.769531 224.96875 362.066406 225.371094 362.375 C 225.773438 362.683594 226.148438 363 226.507812 363.324219 C 226.863281 363.648438 227.191406 363.972656 227.488281 364.296875 C 227.785156 364.621094 228.050781 364.941406 228.277344 365.257812 C 228.507812 365.570312 228.695312 365.875 228.847656 366.164062 C 228.996094 366.457031 229.105469 366.730469 229.171875 366.988281 C 229.238281 367.246094 229.261719 367.480469 229.242188 367.695312 C 229.21875 367.90625 229.15625 368.09375 229.050781 368.257812 C 228.945312 368.417969 228.796875 368.550781 228.609375 368.652344 C 228.421875 368.753906 228.195312 368.828125 227.933594 368.867188 C 227.671875 368.90625 227.375 368.917969 227.050781 368.894531 C 226.722656 368.871094 226.367188 368.816406 225.988281 368.726562 C 225.609375 368.640625 225.214844 368.527344 224.796875 368.378906 C 224.382812 368.234375 223.953125 368.058594 223.515625 367.859375 C 223.078125 367.660156 222.640625 367.4375 222.195312 367.191406 C 221.753906 366.945312 221.320312 366.679688 220.890625 366.394531 C 220.460938 366.113281 220.042969 365.816406 219.644531 365.507812 C 219.242188 365.195312 218.863281 364.882812 218.507812 364.558594 C 218.152344 364.234375 217.824219 363.910156 217.527344 363.585938 C 217.226562 363.257812 216.964844 362.941406 216.734375 362.625 C 216.507812 362.3125 216.316406 362.007812 216.167969 361.714844 C 216.015625 361.425781 215.910156 361.152344 215.84375 360.894531 C 215.777344 360.636719 215.753906 360.402344 215.773438 360.1875 C 215.792969 359.972656 215.855469 359.785156 215.964844 359.625 C 216.070312 359.464844 216.21875 359.332031 216.40625 359.230469 C 216.59375 359.128906 216.816406 359.054688 217.082031 359.015625 C 217.34375 358.972656 217.636719 358.964844 217.964844 358.988281 C 218.292969 359.011719 218.644531 359.066406 219.023438 359.152344 C 219.402344 359.242188 219.800781 359.355469 220.21875 359.503906 C 220.632812 359.648438 221.058594 359.820312 221.496094 360.023438 C 221.9375 360.222656 222.375 360.445312 222.816406 360.691406 C 223.261719 360.9375 223.695312 361.203125 224.125 361.488281 Z M 224.125 361.488281 "/>
<path style=" stroke:none;fill-rule:nonzero;fill:rgb(18.429565%,18.03894%,25.489807%);fill-opacity:1;" d="M 257.257812 361.5625 L 261.46875 353.152344 L 276.535156 360.699219 L 272.324219 369.109375 Z M 257.257812 361.5625 "/>
<path style=" stroke:none;fill-rule:nonzero;fill:rgb(18.429565%,18.03894%,25.489807%);fill-opacity:1;" d="M 283.425781 359.625 C 283.53125 359.785156 283.59375 359.972656 283.613281 360.1875 C 283.632812 360.402344 283.613281 360.636719 283.546875 360.894531 C 283.480469 361.152344 283.371094 361.425781 283.21875 361.714844 C 283.070312 362.007812 282.878906 362.3125 282.652344 362.625 C 282.421875 362.9375 282.160156 363.257812 281.863281 363.585938 C 281.5625 363.910156 281.234375 364.234375 280.878906 364.558594 C 280.523438 364.878906 280.144531 365.195312 279.746094 365.507812 C 279.34375 365.816406 278.929688 366.113281 278.5 366.394531 C 278.070312 366.679688 277.632812 366.945312 277.191406 367.191406 C 276.75 367.4375 276.308594 367.660156 275.871094 367.859375 C 275.433594 368.058594 275.007812 368.234375 274.589844 368.378906 C 274.175781 368.523438 273.777344 368.640625 273.398438 368.726562 C 273.019531 368.8125 272.664062 368.871094 272.339844 368.894531 C 272.011719 368.914062 271.714844 368.90625 271.453125 368.867188 C 271.191406 368.828125 270.964844 368.753906 270.777344 368.652344 C 270.589844 368.550781 270.441406 368.417969 270.335938 368.257812 C 270.230469 368.09375 270.167969 367.90625 270.148438 367.695312 C 270.125 367.480469 270.148438 367.246094 270.214844 366.988281 C 270.28125 366.730469 270.390625 366.457031 270.539062 366.164062 C 270.691406 365.875 270.878906 365.570312 271.109375 365.257812 C 271.335938 364.941406 271.601562 364.621094 271.898438 364.296875 C 272.199219 363.972656 272.523438 363.648438 272.882812 363.324219 C 273.238281 363 273.617188 362.683594 274.015625 362.375 C 274.417969 362.066406 274.832031 361.769531 275.261719 361.484375 C 275.691406 361.203125 276.128906 360.9375 276.570312 360.691406 C 277.011719 360.445312 277.453125 360.222656 277.890625 360.023438 C 278.328125 359.820312 278.753906 359.648438 279.171875 359.503906 C 279.585938 359.355469 279.984375 359.238281 280.363281 359.152344 C 280.742188 359.066406 281.09375 359.011719 281.421875 358.988281 C 281.75 358.964844 282.042969 358.972656 282.308594 359.015625 C 282.570312 359.054688 282.792969 359.125 282.984375 359.230469 C 283.171875 359.332031 283.316406 359.464844 283.425781 359.625 Z M 283.425781 359.625 "/>
<path style=" stroke:none;fill-rule:nonzero;fill:rgb(100%,100%,100%);fill-opacity:1;" d="M 258.109375 325.234375 C 258.109375 325.925781 258.042969 326.617188 257.90625 327.296875 C 257.769531 327.980469 257.570312 328.640625 257.304688 329.28125 C 257.039062 329.925781 256.710938 330.535156 256.324219 331.113281 C 255.941406 331.691406 255.5 332.226562 255.011719 332.714844 C 254.519531 333.207031 253.984375 333.644531 253.40625 334.03125 C 252.828125 334.417969 252.21875 334.746094 251.578125 335.011719 C 250.933594 335.277344 250.273438 335.476562 249.589844 335.613281 C 248.910156 335.75 248.222656 335.816406 247.527344 335.816406 C 246.832031 335.816406 246.144531 335.75 245.464844 335.613281 C 244.78125 335.476562 244.121094 335.277344 243.476562 335.011719 C 242.835938 334.746094 242.226562 334.417969 241.648438 334.03125 C 241.070312 333.644531 240.535156 333.207031 240.042969 332.714844 C 239.554688 332.226562 239.113281 331.691406 238.730469 331.113281 C 238.34375 330.535156 238.015625 329.925781 237.75 329.28125 C 237.484375 328.640625 237.285156 327.980469 237.148438 327.296875 C 237.011719 326.617188 236.945312 325.925781 236.945312 325.234375 C 236.945312 324.539062 237.011719 323.847656 237.148438 323.167969 C 237.285156 322.484375 237.484375 321.824219 237.75 321.183594 C 238.015625 320.539062 238.34375 319.929688 238.730469 319.351562 C 239.113281 318.773438 239.554688 318.242188 240.042969 317.75 C 240.535156 317.257812 241.070312 316.820312 241.648438 316.433594 C 242.226562 316.046875 242.835938 315.71875 243.476562 315.453125 C 244.121094 315.1875 244.78125 314.988281 245.464844 314.851562 C 246.144531 314.71875 246.832031 314.648438 247.527344 314.648438 C 248.222656 314.648438 248.910156 314.71875 249.589844 314.851562 C 250.273438 314.988281 250.933594 315.1875 251.578125 315.453125 C 252.21875 315.71875 252.828125 316.046875 253.40625 316.433594 C 253.984375 316.820312 254.519531 317.257812 255.011719 317.75 C 255.5 318.242188 255.941406 318.773438 256.324219 319.351562 C 256.710938 319.929688 257.039062 320.539062 257.304688 321.183594 C 257.570312 321.824219 257.769531 322.484375 257.90625 323.167969 C 258.042969 323.847656 258.109375 324.539062 258.109375 325.234375 Z M 258.109375 325.234375 "/>
<path style=" stroke:none;fill-rule:nonzero;fill:rgb(24.708557%,23.919678%,33.729553%);fill-opacity:1;" d="M 250.082031 318.21875 C 250.414062 318.550781 250.671875 318.933594 250.851562 319.363281 C 251.03125 319.796875 251.125 320.246094 251.125 320.714844 C 251.125 321.183594 251.039062 321.632812 250.863281 322.0625 C 250.683594 322.492188 250.429688 322.875 250.101562 323.203125 C 249.773438 323.53125 249.390625 323.785156 248.960938 323.964844 C 248.527344 324.140625 248.078125 324.230469 247.613281 324.226562 C 247.144531 324.226562 246.695312 324.132812 246.261719 323.953125 C 245.832031 323.773438 245.449219 323.519531 245.117188 323.1875 C 244.785156 322.855469 244.527344 322.472656 244.347656 322.039062 C 244.167969 321.605469 244.078125 321.15625 244.074219 320.6875 C 244.074219 320.222656 244.160156 319.773438 244.339844 319.339844 C 244.515625 318.910156 244.769531 318.53125 245.097656 318.199219 C 245.429688 317.871094 245.808594 317.617188 246.238281 317.441406 C 246.671875 317.261719 247.121094 317.175781 247.585938 317.175781 C 248.054688 317.179688 248.503906 317.269531 248.9375 317.449219 C 249.371094 317.628906 249.75 317.886719 250.082031 318.21875 Z M 250.082031 318.21875 "/>
<path style=" stroke:none;fill-rule:nonzero;fill:rgb(0%,74.899292%,65.098572%);fill-opacity:1;" d="M 274.117188 299.121094 C 274.585938 287.65625 264.707031 277.945312 252.054688 277.429688 C 239.402344 276.917969 228.769531 285.792969 228.304688 297.257812 C 227.835938 308.722656 236.632812 311.328125 249.285156 311.839844 C 261.933594 312.355469 273.652344 310.582031 274.117188 299.121094 Z M 274.117188 299.121094 "/>
<path style=" stroke:none;fill-rule:nonzero;fill:rgb(18.429565%,18.03894%,25.489807%);fill-opacity:1;" d="M 285.570312 334.109375 C 286.230469 334.878906 286.863281 335.664062 287.464844 336.460938 C 288.066406 337.257812 288.628906 338.050781 289.148438 338.84375 C 289.667969 339.636719 290.132812 340.410156 290.550781 341.167969 C 290.964844 341.925781 291.324219 342.648438 291.621094 343.34375 C 291.917969 344.035156 292.148438 344.683594 292.316406 345.28125 C 292.480469 345.882812 292.578125 346.429688 292.609375 346.917969 C 292.640625 347.402344 292.601562 347.824219 292.492188 348.179688 C 292.382812 348.53125 292.207031 348.8125 291.964844 349.023438 C 291.722656 349.230469 291.417969 349.359375 291.054688 349.414062 C 290.6875 349.46875 290.265625 349.441406 289.789062 349.339844 C 289.308594 349.234375 288.789062 349.054688 288.21875 348.800781 C 287.648438 348.546875 287.042969 348.21875 286.40625 347.820312 C 285.765625 347.421875 285.105469 346.957031 284.417969 346.433594 C 283.734375 345.90625 283.039062 345.328125 282.335938 344.695312 C 281.628906 344.0625 280.929688 343.386719 280.234375 342.671875 C 279.535156 341.953125 278.859375 341.210938 278.195312 340.441406 C 277.535156 339.667969 276.902344 338.882812 276.300781 338.085938 C 275.695312 337.289062 275.136719 336.496094 274.617188 335.703125 C 274.097656 334.910156 273.628906 334.136719 273.214844 333.378906 C 272.796875 332.621094 272.441406 331.898438 272.144531 331.207031 C 271.847656 330.511719 271.617188 329.867188 271.449219 329.265625 C 271.285156 328.664062 271.183594 328.121094 271.15625 327.632812 C 271.125 327.144531 271.164062 326.722656 271.273438 326.371094 C 271.382812 326.015625 271.558594 325.734375 271.800781 325.527344 C 272.042969 325.320312 272.34375 325.1875 272.710938 325.132812 C 273.078125 325.082031 273.5 325.105469 273.976562 325.210938 C 274.453125 325.3125 274.976562 325.492188 275.546875 325.746094 C 276.117188 326.003906 276.71875 326.332031 277.359375 326.730469 C 278 327.128906 278.660156 327.589844 279.347656 328.113281 C 280.03125 328.640625 280.726562 329.21875 281.429688 329.855469 C 282.132812 330.488281 282.835938 331.160156 283.53125 331.878906 C 284.226562 332.59375 284.90625 333.335938 285.570312 334.109375 Z M 285.570312 334.109375 "/>
<path style=" stroke:none;fill-rule:nonzero;fill:rgb(18.429565%,18.03894%,25.489807%);fill-opacity:1;" d="M 227.675781 325.527344 C 227.917969 325.734375 228.09375 326.015625 228.203125 326.371094 C 228.3125 326.722656 228.351562 327.144531 228.320312 327.632812 C 228.289062 328.117188 228.191406 328.664062 228.027344 329.265625 C 227.859375 329.867188 227.628906 330.511719 227.332031 331.207031 C 227.035156 331.898438 226.675781 332.621094 226.261719 333.378906 C 225.84375 334.136719 225.378906 334.910156 224.859375 335.703125 C 224.339844 336.496094 223.78125 337.289062 223.175781 338.085938 C 222.574219 338.882812 221.941406 339.667969 221.28125 340.441406 C 220.617188 341.210938 219.9375 341.953125 219.242188 342.671875 C 218.546875 343.386719 217.847656 344.0625 217.140625 344.695312 C 216.4375 345.328125 215.742188 345.90625 215.058594 346.433594 C 214.371094 346.957031 213.710938 347.421875 213.070312 347.820312 C 212.429688 348.21875 211.828125 348.542969 211.257812 348.800781 C 210.6875 349.054688 210.164062 349.234375 209.6875 349.339844 C 209.210938 349.441406 208.789062 349.46875 208.421875 349.414062 C 208.058594 349.359375 207.753906 349.230469 207.511719 349.023438 C 207.269531 348.8125 207.09375 348.53125 206.984375 348.179688 C 206.875 347.824219 206.835938 347.402344 206.867188 346.914062 C 206.898438 346.429688 206.996094 345.882812 207.160156 345.28125 C 207.328125 344.679688 207.558594 344.035156 207.855469 343.34375 C 208.152344 342.648438 208.511719 341.925781 208.925781 341.167969 C 209.34375 340.410156 209.808594 339.636719 210.328125 338.84375 C 210.847656 338.050781 211.40625 337.257812 212.011719 336.460938 C 212.613281 335.664062 213.246094 334.878906 213.90625 334.109375 C 214.570312 333.335938 215.246094 332.59375 215.945312 331.878906 C 216.640625 331.160156 217.339844 330.488281 218.046875 329.851562 C 218.75 329.21875 219.445312 328.640625 220.128906 328.113281 C 220.816406 327.589844 221.476562 327.125 222.117188 326.726562 C 222.757812 326.328125 223.359375 326.003906 223.929688 325.746094 C 224.5 325.492188 225.023438 325.3125 225.5 325.207031 C 225.976562 325.105469 226.398438 325.082031 226.765625 325.132812 C 227.128906 325.1875 227.433594 325.316406 227.675781 325.527344 Z M 227.675781 325.527344 "/>
<path style=" stroke:none;fill-rule:nonzero;fill:rgb(100%,100%,100%);fill-opacity:1;" d="M 258.199219 345.011719 C 258.28125 345.464844 258.320312 345.925781 258.3125 346.386719 C 258.304688 346.851562 258.25 347.308594 258.152344 347.761719 C 258.054688 348.214844 257.914062 348.65625 257.730469 349.078125 C 257.546875 349.503906 257.324219 349.90625 257.058594 350.289062 C 256.796875 350.667969 256.496094 351.019531 256.164062 351.34375 C 255.832031 351.664062 255.46875 351.953125 255.082031 352.203125 C 254.691406 352.453125 254.28125 352.664062 253.851562 352.835938 C 253.421875 353.003906 252.976562 353.132812 252.519531 353.214844 C 252.066406 353.296875 251.605469 353.335938 251.144531 353.328125 C 250.679688 353.320312 250.222656 353.269531 249.769531 353.171875 C 249.316406 353.074219 248.878906 352.929688 248.453125 352.746094 C 248.027344 352.5625 247.625 352.339844 247.242188 352.074219 C 246.863281 351.8125 246.511719 351.511719 246.1875 351.179688 C 245.867188 350.847656 245.582031 350.488281 245.328125 350.097656 C 245.078125 349.707031 244.867188 349.296875 244.699219 348.867188 C 244.527344 348.4375 244.402344 347.992188 244.316406 347.539062 L 244.316406 347.523438 C 243.621094 343.6875 246.585938 342.332031 250.417969 341.636719 C 254.253906 340.945312 257.503906 341.175781 258.199219 345.011719 Z M 258.199219 345.011719 "/>
<path style=" stroke:none;fill-rule:nonzero;fill:rgb(79.998779%,79.998779%,79.998779%);fill-opacity:1;" d="M 197.386719 365.746094 C 197.191406 365.746094 197.003906 365.707031 196.824219 365.632812 C 196.644531 365.558594 196.484375 365.453125 196.34375 365.3125 C 196.207031 365.175781 196.101562 365.015625 196.027344 364.835938 C 195.953125 364.65625 195.914062 364.46875 195.914062 364.273438 L 195.914062 277.296875 C 195.914062 277.101562 195.949219 276.914062 196.027344 276.734375 C 196.101562 276.554688 196.207031 276.394531 196.34375 276.257812 C 196.484375 276.117188 196.644531 276.011719 196.824219 275.9375 C 197.003906 275.863281 197.191406 275.824219 197.386719 275.824219 C 197.582031 275.824219 197.769531 275.863281 197.953125 275.9375 C 198.132812 276.011719 198.292969 276.117188 198.429688 276.257812 C 198.566406 276.394531 198.675781 276.554688 198.75 276.734375 C 198.824219 276.914062 198.863281 277.101562 198.863281 277.296875 L 198.863281 364.273438 C 198.863281 364.46875 198.824219 364.65625 198.75 364.835938 C 198.675781 365.015625 198.566406 365.175781 198.429688 365.3125 C 198.292969 365.453125 198.132812 365.558594 197.953125 365.632812 C 197.769531 365.707031 197.582031 365.746094 197.386719 365.746094 Z M 197.386719 365.746094 "/>
<path style=" stroke:none;fill-rule:nonzero;fill:rgb(79.998779%,79.998779%,79.998779%);fill-opacity:1;" d="M 175.277344 443.875 C 175.082031 443.875 174.894531 443.835938 174.714844 443.761719 C 174.535156 443.6875 174.375 443.582031 174.238281 443.441406 C 174.097656 443.304688 173.992188 443.144531 173.917969 442.964844 C 173.84375 442.785156 173.804688 442.597656 173.804688 442.402344 L 173.804688 379.011719 C 173.804688 378.816406 173.84375 378.628906 173.917969 378.449219 C 173.992188 378.269531 174.097656 378.109375 174.238281 377.972656 C 174.375 377.832031 174.535156 377.726562 174.714844 377.652344 C 174.894531 377.578125 175.082031 377.539062 175.277344 377.539062 C 175.472656 377.539062 175.664062 377.578125 175.84375 377.652344 C 176.023438 377.726562 176.183594 377.832031 176.320312 377.972656 C 176.460938 378.109375 176.566406 378.269531 176.640625 378.449219 C 176.714844 378.628906 176.753906 378.816406 176.753906 379.011719 L 176.753906 442.402344 C 176.753906 442.597656 176.714844 442.785156 176.640625 442.964844 C 176.566406 443.144531 176.460938 443.304688 176.320312 443.441406 C 176.183594 443.582031 176.023438 443.6875 175.84375 443.761719 C 175.664062 443.835938 175.472656 443.875 175.277344 443.875 Z M 175.277344 443.875 "/>
<path style=" stroke:none;fill-rule:nonzero;fill:rgb(79.998779%,79.998779%,79.998779%);fill-opacity:1;" d="M 232.023438 391.542969 C 231.828125 391.542969 231.640625 391.503906 231.460938 391.429688 C 231.28125 391.355469 231.121094 391.25 230.980469 391.113281 C 230.84375 390.972656 230.738281 390.8125 230.664062 390.632812 C 230.585938 390.453125 230.550781 390.265625 230.550781 390.070312 L 230.550781 303.09375 C 230.550781 302.898438 230.585938 302.710938 230.664062 302.53125 C 230.738281 302.351562 230.84375 302.191406 230.980469 302.054688 C 231.121094 301.914062 231.28125 301.808594 231.460938 301.734375 C 231.640625 301.660156 231.828125 301.621094 232.023438 301.621094 C 232.21875 301.621094 232.40625 301.660156 232.589844 301.734375 C 232.769531 301.808594 232.929688 301.914062 233.066406 302.054688 C 233.203125 302.191406 233.3125 302.351562 233.386719 302.53125 C 233.460938 302.710938 233.5 302.898438 233.5 303.09375 L 233.5 390.070312 C 233.5 390.265625 233.460938 390.453125 233.386719 390.632812 C 233.3125 390.8125 233.203125 390.972656 233.066406 391.113281 C 232.929688 391.25 232.769531 391.355469 232.589844 391.429688 C 232.40625 391.503906 232.21875 391.542969 232.023438 391.542969 Z M 232.023438 391.542969 "/>
<path style=" stroke:none;fill-rule:nonzero;fill:rgb(79.998779%,79.998779%,79.998779%);fill-opacity:1;" d="M 210.652344 454.195312 C 210.457031 454.195312 210.269531 454.15625 210.089844 454.082031 C 209.90625 454.007812 209.75 453.898438 209.609375 453.761719 C 209.472656 453.625 209.367188 453.464844 209.292969 453.285156 C 209.214844 453.101562 209.179688 452.914062 209.179688 452.71875 L 209.179688 417.339844 C 209.179688 417.144531 209.214844 416.957031 209.292969 416.777344 C 209.367188 416.59375 209.472656 416.4375 209.609375 416.296875 C 209.75 416.160156 209.90625 416.054688 210.089844 415.976562 C 210.269531 415.902344 210.457031 415.867188 210.652344 415.867188 C 210.847656 415.867188 211.035156 415.902344 211.214844 415.976562 C 211.398438 416.054688 211.558594 416.160156 211.695312 416.296875 C 211.832031 416.4375 211.941406 416.59375 212.015625 416.777344 C 212.089844 416.957031 212.125 417.144531 212.125 417.339844 L 212.125 452.71875 C 212.125 452.914062 212.089844 453.101562 212.015625 453.285156 C 211.941406 453.464844 211.832031 453.625 211.695312 453.761719 C 211.558594 453.898438 211.398438 454.007812 211.214844 454.082031 C 211.035156 454.15625 210.847656 454.195312 210.652344 454.195312 Z M 210.652344 454.195312 "/>
<path style=" stroke:none;fill-rule:nonzero;fill:rgb(79.998779%,79.998779%,79.998779%);fill-opacity:1;" d="M 240.867188 272.875 C 240.671875 272.875 240.484375 272.839844 240.304688 272.765625 C 240.125 272.6875 239.964844 272.582031 239.824219 272.445312 C 239.6875 272.304688 239.582031 272.148438 239.507812 271.964844 C 239.429688 271.785156 239.394531 271.597656 239.394531 271.402344 L 239.394531 236.023438 C 239.394531 235.828125 239.429688 235.640625 239.507812 235.457031 C 239.582031 235.277344 239.6875 235.117188 239.824219 234.980469 C 239.964844 234.84375 240.125 234.734375 240.304688 234.660156 C 240.484375 234.585938 240.671875 234.546875 240.867188 234.546875 C 241.0625 234.546875 241.25 234.585938 241.433594 234.660156 C 241.613281 234.734375 241.773438 234.84375 241.910156 234.980469 C 242.046875 235.117188 242.15625 235.277344 242.230469 235.457031 C 242.304688 235.640625 242.339844 235.828125 242.339844 236.023438 L 242.339844 271.402344 C 242.339844 271.597656 242.304688 271.785156 242.230469 271.964844 C 242.15625 272.148438 242.046875 272.304688 241.910156 272.445312 C 241.773438 272.582031 241.613281 272.6875 241.433594 272.765625 C 241.25 272.839844 241.0625 272.875 240.867188 272.875 Z M 240.867188 272.875 "/>
<path style=" stroke:none;fill-rule:nonzero;fill:rgb(79.998779%,79.998779%,79.998779%);fill-opacity:1;" d="M 167.171875 288.355469 C 166.976562 288.355469 166.789062 288.316406 166.609375 288.242188 C 166.429688 288.167969 166.269531 288.0625 166.128906 287.921875 C 165.992188 287.785156 165.886719 287.625 165.8125 287.445312 C 165.734375 287.265625 165.699219 287.074219 165.699219 286.878906 L 165.699219 251.5 C 165.699219 251.304688 165.734375 251.117188 165.8125 250.9375 C 165.886719 250.757812 165.992188 250.597656 166.128906 250.457031 C 166.269531 250.320312 166.429688 250.214844 166.609375 250.140625 C 166.789062 250.066406 166.976562 250.027344 167.171875 250.027344 C 167.367188 250.027344 167.554688 250.066406 167.738281 250.140625 C 167.917969 250.214844 168.078125 250.320312 168.214844 250.457031 C 168.351562 250.597656 168.460938 250.757812 168.535156 250.9375 C 168.609375 251.117188 168.648438 251.304688 168.648438 251.5 L 168.648438 286.878906 C 168.648438 287.074219 168.609375 287.265625 168.535156 287.445312 C 168.460938 287.625 168.351562 287.785156 168.214844 287.921875 C 168.078125 288.0625 167.917969 288.167969 167.738281 288.242188 C 167.554688 288.316406 167.367188 288.355469 167.171875 288.355469 Z M 167.171875 288.355469 "/>
<path style=" stroke:none;fill-rule:nonzero;fill:rgb(79.998779%,79.998779%,79.998779%);fill-opacity:1;" d="M 295.402344 292.039062 C 295.207031 292.039062 295.019531 292.003906 294.839844 291.925781 C 294.65625 291.851562 294.5 291.746094 294.359375 291.609375 C 294.222656 291.46875 294.113281 291.308594 294.039062 291.128906 C 293.964844 290.949219 293.929688 290.761719 293.929688 290.566406 L 293.929688 255.1875 C 293.929688 254.992188 293.964844 254.804688 294.039062 254.621094 C 294.113281 254.441406 294.222656 254.28125 294.359375 254.144531 C 294.496094 254.007812 294.65625 253.898438 294.839844 253.824219 C 295.019531 253.75 295.207031 253.710938 295.402344 253.710938 C 295.597656 253.710938 295.785156 253.75 295.964844 253.824219 C 296.148438 253.898438 296.304688 254.007812 296.445312 254.144531 C 296.582031 254.28125 296.6875 254.441406 296.765625 254.621094 C 296.839844 254.804688 296.875 254.992188 296.875 255.1875 L 296.875 290.566406 C 296.875 290.761719 296.839844 290.949219 296.765625 291.128906 C 296.6875 291.308594 296.582031 291.46875 296.445312 291.609375 C 296.304688 291.746094 296.148438 291.851562 295.964844 291.925781 C 295.785156 292.003906 295.597656 292.039062 295.402344 292.039062 Z M 295.402344 292.039062 "/>
<path style=" stroke:none;fill-rule:nonzero;fill:rgb(79.998779%,79.998779%,79.998779%);fill-opacity:1;" d="M 292.453125 402.597656 C 292.257812 402.597656 292.070312 402.5625 291.890625 402.488281 C 291.710938 402.410156 291.550781 402.304688 291.410156 402.167969 C 291.273438 402.027344 291.167969 401.871094 291.09375 401.6875 C 291.019531 401.507812 290.980469 401.320312 290.980469 401.125 L 290.980469 358.375 C 290.980469 358.179688 291.019531 357.992188 291.09375 357.8125 C 291.167969 357.628906 291.273438 357.472656 291.410156 357.332031 C 291.550781 357.195312 291.710938 357.089844 291.890625 357.011719 C 292.070312 356.9375 292.257812 356.902344 292.453125 356.902344 C 292.648438 356.902344 292.835938 356.9375 293.019531 357.011719 C 293.199219 357.089844 293.359375 357.195312 293.496094 357.332031 C 293.632812 357.472656 293.742188 357.628906 293.816406 357.8125 C 293.890625 357.992188 293.929688 358.179688 293.929688 358.375 L 293.929688 401.125 C 293.929688 401.320312 293.890625 401.507812 293.816406 401.6875 C 293.742188 401.871094 293.632812 402.027344 293.496094 402.167969 C 293.359375 402.304688 293.199219 402.410156 293.019531 402.488281 C 292.835938 402.5625 292.648438 402.597656 292.453125 402.597656 Z M 292.453125 402.597656 "/>
<path style=" stroke:none;fill-rule:nonzero;fill:rgb(79.998779%,79.998779%,79.998779%);fill-opacity:1;" d="M 262.976562 440.1875 C 262.78125 440.1875 262.59375 440.152344 262.414062 440.078125 C 262.230469 440.003906 262.070312 439.894531 261.933594 439.757812 C 261.796875 439.621094 261.6875 439.460938 261.613281 439.28125 C 261.539062 439.097656 261.503906 438.910156 261.503906 438.714844 L 261.503906 375.328125 C 261.503906 375.132812 261.539062 374.945312 261.613281 374.761719 C 261.6875 374.582031 261.796875 374.421875 261.933594 374.285156 C 262.070312 374.148438 262.230469 374.039062 262.414062 373.964844 C 262.59375 373.890625 262.78125 373.855469 262.976562 373.855469 C 263.171875 373.855469 263.359375 373.890625 263.539062 373.964844 C 263.722656 374.039062 263.878906 374.148438 264.019531 374.285156 C 264.15625 374.421875 264.261719 374.582031 264.339844 374.761719 C 264.414062 374.945312 264.449219 375.132812 264.449219 375.328125 L 264.449219 438.714844 C 264.449219 438.910156 264.414062 439.097656 264.339844 439.28125 C 264.261719 439.460938 264.15625 439.621094 264.019531 439.757812 C 263.878906 439.894531 263.722656 440.003906 263.539062 440.078125 C 263.359375 440.152344 263.171875 440.1875 262.976562 440.1875 Z M 262.976562 440.1875 "/>
<path style=" stroke:none;fill-rule:nonzero;fill:rgb(79.998779%,79.998779%,79.998779%);fill-opacity:1;" d="M 268.871094 331.839844 C 268.675781 331.839844 268.488281 331.804688 268.308594 331.730469 C 268.128906 331.652344 267.96875 331.546875 267.828125 331.410156 C 267.691406 331.269531 267.585938 331.113281 267.511719 330.929688 C 267.433594 330.75 267.398438 330.5625 267.398438 330.367188 L 267.398438 243.394531 C 267.398438 243.199219 267.433594 243.011719 267.511719 242.828125 C 267.585938 242.648438 267.691406 242.488281 267.828125 242.351562 C 267.96875 242.214844 268.128906 242.105469 268.308594 242.03125 C 268.488281 241.957031 268.675781 241.917969 268.871094 241.917969 C 269.066406 241.917969 269.253906 241.957031 269.4375 242.03125 C 269.617188 242.105469 269.777344 242.214844 269.914062 242.351562 C 270.050781 242.488281 270.160156 242.648438 270.234375 242.828125 C 270.308594 243.011719 270.347656 243.199219 270.347656 243.394531 L 270.347656 330.367188 C 270.347656 330.5625 270.308594 330.75 270.234375 330.929688 C 270.160156 331.113281 270.050781 331.269531 269.914062 331.410156 C 269.777344 331.546875 269.617188 331.652344 269.4375 331.730469 C 269.253906 331.804688 269.066406 331.839844 268.871094 331.839844 Z M 268.871094 331.839844 "/>
<path style=" stroke:none;fill-rule:nonzero;fill:rgb(18.429565%,18.03894%,25.489807%);fill-opacity:1;" d="M 443.199219 501.546875 C 443.871094 502.347656 444.507812 503.15625 445.113281 503.980469 C 445.722656 504.808594 446.285156 505.628906 446.808594 506.449219 C 447.332031 507.265625 447.800781 508.066406 448.21875 508.847656 C 448.632812 509.628906 448.988281 510.375 449.285156 511.089844 C 449.582031 511.800781 449.8125 512.46875 449.972656 513.085938 C 450.136719 513.707031 450.230469 514.265625 450.253906 514.765625 C 450.277344 515.265625 450.234375 515.695312 450.117188 516.058594 C 450.003906 516.417969 449.820312 516.703125 449.570312 516.914062 C 449.316406 517.125 449.003906 517.253906 448.628906 517.304688 C 448.25 517.355469 447.820312 517.324219 447.332031 517.210938 C 446.84375 517.101562 446.308594 516.910156 445.730469 516.640625 C 445.148438 516.371094 444.535156 516.027344 443.882812 515.613281 C 443.234375 515.195312 442.5625 514.714844 441.863281 514.164062 C 441.167969 513.617188 440.464844 513.015625 439.75 512.359375 C 439.035156 511.699219 438.328125 511 437.621094 510.257812 C 436.917969 509.515625 436.230469 508.742188 435.5625 507.945312 C 434.894531 507.144531 434.253906 506.332031 433.648438 505.507812 C 433.039062 504.683594 432.476562 503.863281 431.953125 503.042969 C 431.429688 502.226562 430.960938 501.425781 430.546875 500.644531 C 430.128906 499.863281 429.773438 499.117188 429.476562 498.402344 C 429.179688 497.6875 428.953125 497.023438 428.789062 496.402344 C 428.625 495.785156 428.53125 495.226562 428.507812 494.726562 C 428.484375 494.226562 428.527344 493.796875 428.644531 493.433594 C 428.757812 493.070312 428.941406 492.785156 429.195312 492.574219 C 429.445312 492.367188 429.757812 492.234375 430.132812 492.1875 C 430.511719 492.136719 430.941406 492.167969 431.429688 492.277344 C 431.917969 492.390625 432.453125 492.582031 433.03125 492.851562 C 433.613281 493.117188 434.226562 493.460938 434.878906 493.878906 C 435.527344 494.292969 436.203125 494.777344 436.898438 495.324219 C 437.59375 495.871094 438.296875 496.476562 439.011719 497.132812 C 439.726562 497.789062 440.433594 498.492188 441.140625 499.234375 C 441.84375 499.976562 442.53125 500.746094 443.199219 501.546875 Z M 443.199219 501.546875 "/>
<path style=" stroke:none;fill-rule:nonzero;fill:rgb(18.429565%,18.03894%,25.489807%);fill-opacity:1;" d="M 415.65625 469.121094 C 416.644531 469.449219 417.613281 469.824219 418.5625 470.25 C 419.511719 470.671875 420.4375 471.140625 421.339844 471.65625 C 422.242188 472.171875 423.117188 472.730469 423.964844 473.332031 C 424.8125 473.929688 425.632812 474.570312 426.417969 475.253906 C 427.203125 475.933594 427.953125 476.652344 428.667969 477.40625 C 429.382812 478.164062 430.058594 478.949219 430.695312 479.773438 C 431.332031 480.59375 431.925781 481.445312 432.480469 482.324219 C 433.035156 483.203125 433.542969 484.109375 434.007812 485.039062 C 434.472656 485.96875 434.890625 486.917969 435.261719 487.890625 C 435.636719 488.859375 435.957031 489.847656 436.234375 490.851562 C 436.507812 491.851562 436.730469 492.867188 436.90625 493.890625 C 437.082031 494.914062 437.207031 495.945312 437.28125 496.984375 C 437.351562 498.019531 437.375 499.058594 437.347656 500.097656 C 437.320312 501.136719 437.242188 502.171875 437.109375 503.203125 C 436.980469 504.234375 436.800781 505.257812 436.570312 506.273438 C 436.339844 507.285156 436.058594 508.285156 435.730469 509.273438 C 435.402344 510.257812 435.027344 511.226562 434.601562 512.175781 C 434.179688 513.125 433.710938 514.050781 433.195312 514.953125 C 432.679688 515.855469 432.121094 516.734375 431.519531 517.582031 C 430.921875 518.429688 430.277344 519.246094 429.597656 520.03125 C 428.917969 520.816406 428.199219 521.566406 427.445312 522.28125 C 426.691406 522.996094 425.902344 523.671875 425.082031 524.3125 C 424.257812 524.949219 423.410156 525.542969 422.527344 526.097656 C 421.648438 526.652344 420.746094 527.160156 419.816406 527.625 C 418.886719 528.089844 417.933594 528.507812 416.964844 528.878906 C 415.992188 529.253906 415.007812 529.574219 414.003906 529.851562 C 413 530.125 411.988281 530.347656 410.964844 530.523438 C 409.9375 530.699219 408.90625 530.824219 407.871094 530.898438 C 406.835938 530.96875 405.796875 530.992188 404.757812 530.964844 C 403.71875 530.9375 402.683594 530.859375 401.652344 530.726562 C 400.621094 530.597656 399.597656 530.417969 398.585938 530.1875 C 397.570312 529.957031 396.570312 529.675781 395.585938 529.347656 C 394.597656 529.019531 393.632812 528.644531 392.683594 528.21875 C 391.734375 527.796875 390.808594 527.324219 389.902344 526.8125 C 389 526.296875 388.125 525.738281 387.277344 525.136719 C 386.429688 524.535156 385.613281 523.894531 384.828125 523.214844 C 384.042969 522.53125 383.292969 521.816406 382.578125 521.058594 C 381.863281 520.304688 381.1875 519.515625 380.546875 518.695312 C 379.910156 517.875 379.316406 517.023438 378.761719 516.144531 C 378.207031 515.265625 377.699219 514.359375 377.234375 513.429688 C 376.769531 512.5 376.351562 511.550781 375.980469 510.578125 C 375.609375 509.605469 375.285156 508.621094 375.011719 507.617188 C 374.734375 506.613281 374.511719 505.601562 374.335938 504.578125 C 374.160156 503.550781 374.035156 502.519531 373.964844 501.484375 C 373.890625 500.445312 373.867188 499.410156 373.894531 498.371094 C 373.921875 497.332031 374.003906 496.296875 374.132812 495.261719 C 374.261719 494.230469 374.441406 493.210938 374.671875 492.195312 C 374.902344 491.183594 375.183594 490.183594 375.511719 489.195312 C 375.839844 488.210938 376.21875 487.242188 376.640625 486.292969 C 377.066406 485.34375 377.535156 484.417969 378.046875 483.511719 C 378.5625 482.609375 379.121094 481.734375 379.722656 480.886719 C 380.324219 480.039062 380.964844 479.222656 381.644531 478.4375 C 382.324219 477.648438 383.042969 476.898438 383.796875 476.183594 C 384.554688 475.46875 385.339844 474.792969 386.164062 474.15625 C 386.984375 473.519531 387.832031 472.921875 388.714844 472.371094 C 389.59375 471.816406 390.496094 471.308594 391.425781 470.839844 C 392.355469 470.375 393.308594 469.957031 394.277344 469.585938 C 395.25 469.214844 396.234375 468.890625 397.238281 468.617188 C 398.242188 468.34375 399.253906 468.117188 400.28125 467.945312 C 401.304688 467.769531 402.335938 467.644531 403.371094 467.570312 C 404.410156 467.496094 405.445312 467.472656 406.484375 467.503906 C 407.523438 467.53125 408.558594 467.609375 409.589844 467.738281 C 410.621094 467.871094 411.644531 468.050781 412.660156 468.28125 C 413.671875 468.511719 414.671875 468.789062 415.65625 469.121094 Z M 415.65625 469.121094 "/>
<path style=" stroke:none;fill-rule:nonzero;fill:rgb(18.429565%,18.03894%,25.489807%);fill-opacity:1;" d="M 409.414062 524.148438 L 419.054688 524.148438 L 419.054688 541.425781 L 409.414062 541.425781 Z M 409.414062 524.148438 "/>
<path style=" stroke:none;fill-rule:nonzero;fill:rgb(18.429565%,18.03894%,25.489807%);fill-opacity:1;" d="M 390.128906 524.148438 L 399.773438 524.148438 L 399.773438 541.425781 L 390.128906 541.425781 Z M 390.128906 524.148438 "/>
<g clip-path="url(#clip6)" clip-rule="nonzero">
<path style=" stroke:none;fill-rule:nonzero;fill:rgb(18.429565%,18.03894%,25.489807%);fill-opacity:1;" d="M 419.054688 541.625 C 419.054688 541.824219 419.003906 542.019531 418.902344 542.214844 C 418.796875 542.40625 418.644531 542.597656 418.445312 542.777344 C 418.242188 542.960938 417.996094 543.136719 417.703125 543.300781 C 417.410156 543.464844 417.074219 543.617188 416.703125 543.757812 C 416.328125 543.894531 415.921875 544.019531 415.484375 544.132812 C 415.046875 544.242188 414.582031 544.335938 414.09375 544.410156 C 413.609375 544.484375 413.105469 544.542969 412.589844 544.582031 C 412.070312 544.621094 411.546875 544.640625 411.019531 544.640625 C 410.492188 544.640625 409.96875 544.621094 409.453125 544.582031 C 408.933594 544.542969 408.433594 544.484375 407.945312 544.410156 C 407.457031 544.332031 406.996094 544.242188 406.554688 544.132812 C 406.117188 544.019531 405.710938 543.894531 405.339844 543.757812 C 404.964844 543.617188 404.632812 543.464844 404.339844 543.300781 C 404.046875 543.136719 403.800781 542.960938 403.597656 542.777344 C 403.394531 542.597656 403.242188 542.40625 403.140625 542.214844 C 403.035156 542.019531 402.984375 541.824219 402.984375 541.625 C 402.984375 541.425781 403.035156 541.230469 403.140625 541.039062 C 403.242188 540.84375 403.394531 540.65625 403.597656 540.472656 C 403.800781 540.289062 404.046875 540.117188 404.339844 539.949219 C 404.632812 539.785156 404.964844 539.632812 405.339844 539.496094 C 405.710938 539.355469 406.117188 539.230469 406.554688 539.121094 C 406.996094 539.007812 407.457031 538.917969 407.945312 538.839844 C 408.433594 538.765625 408.933594 538.707031 409.453125 538.667969 C 409.96875 538.632812 410.492188 538.613281 411.019531 538.613281 C 411.546875 538.613281 412.070312 538.632812 412.589844 538.667969 C 413.105469 538.707031 413.609375 538.765625 414.09375 538.839844 C 414.582031 538.917969 415.046875 539.007812 415.484375 539.121094 C 415.921875 539.230469 416.328125 539.355469 416.703125 539.496094 C 417.074219 539.632812 417.410156 539.785156 417.703125 539.949219 C 417.996094 540.117188 418.242188 540.289062 418.445312 540.472656 C 418.644531 540.65625 418.796875 540.84375 418.902344 541.039062 C 419.003906 541.230469 419.054688 541.425781 419.054688 541.625 Z M 419.054688 541.625 "/>
</g>
<g clip-path="url(#clip7)" clip-rule="nonzero">
<path style=" stroke:none;fill-rule:nonzero;fill:rgb(18.429565%,18.03894%,25.489807%);fill-opacity:1;" d="M 399.769531 541.222656 C 399.769531 541.421875 399.71875 541.617188 399.617188 541.8125 C 399.511719 542.003906 399.359375 542.195312 399.160156 542.378906 C 398.957031 542.558594 398.710938 542.734375 398.417969 542.898438 C 398.125 543.0625 397.789062 543.214844 397.417969 543.355469 C 397.042969 543.496094 396.636719 543.621094 396.199219 543.730469 C 395.761719 543.839844 395.296875 543.933594 394.8125 544.007812 C 394.324219 544.082031 393.820312 544.140625 393.304688 544.179688 C 392.785156 544.21875 392.261719 544.238281 391.734375 544.238281 C 391.207031 544.238281 390.6875 544.21875 390.167969 544.179688 C 389.652344 544.140625 389.148438 544.082031 388.660156 544.007812 C 388.171875 543.933594 387.710938 543.839844 387.273438 543.730469 C 386.832031 543.621094 386.425781 543.496094 386.054688 543.355469 C 385.679688 543.214844 385.347656 543.0625 385.054688 542.898438 C 384.761719 542.734375 384.515625 542.558594 384.3125 542.378906 C 384.109375 542.195312 383.957031 542.003906 383.855469 541.8125 C 383.753906 541.617188 383.699219 541.421875 383.699219 541.222656 C 383.699219 541.027344 383.753906 540.828125 383.855469 540.636719 C 383.957031 540.441406 384.109375 540.253906 384.3125 540.070312 C 384.515625 539.886719 384.761719 539.714844 385.054688 539.550781 C 385.347656 539.382812 385.679688 539.234375 386.054688 539.09375 C 386.425781 538.953125 386.832031 538.828125 387.273438 538.71875 C 387.710938 538.609375 388.171875 538.515625 388.660156 538.4375 C 389.148438 538.363281 389.652344 538.304688 390.167969 538.269531 C 390.6875 538.230469 391.207031 538.210938 391.734375 538.210938 C 392.261719 538.210938 392.785156 538.230469 393.304688 538.269531 C 393.820312 538.304688 394.324219 538.363281 394.8125 538.4375 C 395.296875 538.515625 395.761719 538.609375 396.199219 538.71875 C 396.636719 538.828125 397.042969 538.953125 397.417969 539.09375 C 397.789062 539.234375 398.125 539.382812 398.417969 539.550781 C 398.710938 539.714844 398.957031 539.886719 399.160156 540.070312 C 399.359375 540.253906 399.511719 540.441406 399.617188 540.636719 C 399.71875 540.828125 399.769531 541.027344 399.769531 541.222656 Z M 399.769531 541.222656 "/>
</g>
<path style=" stroke:none;fill-rule:nonzero;fill:rgb(79.998779%,79.998779%,79.998779%);fill-opacity:1;" d="M 395.65625 459.332031 C 398.492188 447.917969 411 441.199219 423.597656 444.328125 C 436.195312 447.457031 444.109375 459.246094 441.277344 470.660156 C 438.441406 482.078125 429.039062 482.113281 416.441406 478.984375 C 403.84375 475.855469 392.824219 470.746094 395.65625 459.332031 Z M 395.65625 459.332031 "/>
<path style=" stroke:none;fill-rule:nonzero;fill:rgb(18.429565%,18.03894%,25.489807%);fill-opacity:1;" d="M 372.007812 480.003906 C 372.949219 480.449219 373.867188 480.921875 374.765625 481.417969 C 375.660156 481.914062 376.515625 482.421875 377.332031 482.949219 C 378.148438 483.476562 378.910156 484.003906 379.613281 484.542969 C 380.320312 485.078125 380.953125 485.605469 381.519531 486.132812 C 382.085938 486.65625 382.574219 487.164062 382.980469 487.660156 C 383.386719 488.152344 383.707031 488.621094 383.9375 489.066406 C 384.167969 489.511719 384.304688 489.921875 384.351562 490.296875 C 384.398438 490.675781 384.351562 491.011719 384.210938 491.308594 C 384.070312 491.601562 383.839844 491.851562 383.519531 492.054688 C 383.199219 492.257812 382.792969 492.410156 382.304688 492.511719 C 381.8125 492.613281 381.25 492.664062 380.609375 492.660156 C 379.96875 492.660156 379.265625 492.605469 378.503906 492.5 C 377.738281 492.390625 376.925781 492.234375 376.0625 492.027344 C 375.203125 491.820312 374.3125 491.566406 373.386719 491.269531 C 372.464844 490.96875 371.527344 490.628906 370.578125 490.246094 C 369.625 489.867188 368.679688 489.453125 367.738281 489.007812 C 366.796875 488.5625 365.878906 488.089844 364.980469 487.59375 C 364.085938 487.097656 363.230469 486.585938 362.414062 486.0625 C 361.597656 485.535156 360.835938 485.003906 360.132812 484.46875 C 359.425781 483.933594 358.789062 483.40625 358.222656 482.878906 C 357.65625 482.355469 357.171875 481.84375 356.765625 481.351562 C 356.359375 480.859375 356.039062 480.386719 355.808594 479.945312 C 355.578125 479.5 355.4375 479.089844 355.394531 478.714844 C 355.347656 478.335938 355.394531 478 355.535156 477.703125 C 355.675781 477.410156 355.90625 477.160156 356.226562 476.957031 C 356.546875 476.753906 356.953125 476.601562 357.441406 476.5 C 357.933594 476.398438 358.496094 476.347656 359.136719 476.347656 C 359.777344 476.351562 360.476562 476.40625 361.242188 476.511719 C 362.007812 476.621094 362.820312 476.777344 363.679688 476.984375 C 364.542969 477.191406 365.433594 477.445312 366.359375 477.742188 C 367.28125 478.042969 368.21875 478.382812 369.167969 478.761719 C 370.121094 479.144531 371.066406 479.558594 372.007812 480.003906 Z M 372.007812 480.003906 "/>
<path style=" stroke:none;fill-rule:nonzero;fill:rgb(100%,100%,100%);fill-opacity:1;" d="M 411.460938 492.535156 C 411.460938 493.230469 411.390625 493.917969 411.253906 494.601562 C 411.121094 495.28125 410.917969 495.945312 410.652344 496.585938 C 410.386719 497.226562 410.0625 497.839844 409.675781 498.417969 C 409.289062 498.992188 408.851562 499.527344 408.359375 500.019531 C 407.867188 500.511719 407.332031 500.949219 406.757812 501.335938 C 406.179688 501.722656 405.570312 502.046875 404.925781 502.3125 C 404.285156 502.578125 403.621094 502.78125 402.941406 502.917969 C 402.261719 503.050781 401.570312 503.121094 400.878906 503.121094 C 400.183594 503.121094 399.496094 503.050781 398.8125 502.917969 C 398.132812 502.78125 397.46875 502.578125 396.828125 502.3125 C 396.1875 502.046875 395.574219 501.722656 395 501.335938 C 394.421875 500.949219 393.886719 500.511719 393.394531 500.019531 C 392.902344 499.527344 392.464844 498.992188 392.078125 498.417969 C 391.691406 497.839844 391.367188 497.226562 391.101562 496.585938 C 390.835938 495.945312 390.632812 495.28125 390.5 494.601562 C 390.363281 493.917969 390.296875 493.230469 390.296875 492.535156 C 390.296875 491.839844 390.363281 491.152344 390.5 490.472656 C 390.632812 489.789062 390.835938 489.128906 391.101562 488.484375 C 391.367188 487.84375 391.691406 487.234375 392.078125 486.65625 C 392.464844 486.078125 392.902344 485.542969 393.394531 485.050781 C 393.886719 484.5625 394.421875 484.121094 395 483.738281 C 395.574219 483.351562 396.1875 483.023438 396.828125 482.757812 C 397.46875 482.492188 398.132812 482.292969 398.8125 482.15625 C 399.496094 482.019531 400.183594 481.953125 400.878906 481.953125 C 401.570312 481.953125 402.261719 482.019531 402.941406 482.15625 C 403.621094 482.292969 404.285156 482.492188 404.925781 482.757812 C 405.570312 483.023438 406.179688 483.351562 406.757812 483.738281 C 407.332031 484.121094 407.867188 484.5625 408.359375 485.050781 C 408.851562 485.542969 409.289062 486.078125 409.675781 486.65625 C 410.0625 487.234375 410.386719 487.84375 410.652344 488.484375 C 410.917969 489.128906 411.121094 489.789062 411.253906 490.472656 C 411.390625 491.152344 411.460938 491.839844 411.460938 492.535156 Z M 411.460938 492.535156 "/>
<path style=" stroke:none;fill-rule:nonzero;fill:rgb(24.708557%,23.919678%,33.729553%);fill-opacity:1;" d="M 400.054688 488.742188 C 400.054688 489.210938 399.964844 489.660156 399.785156 490.09375 C 399.605469 490.523438 399.351562 490.90625 399.023438 491.238281 C 398.691406 491.566406 398.308594 491.824219 397.878906 492 C 397.445312 492.179688 396.996094 492.269531 396.527344 492.269531 C 396.058594 492.269531 395.609375 492.179688 395.179688 492 C 394.746094 491.824219 394.363281 491.566406 394.035156 491.238281 C 393.703125 490.90625 393.449219 490.523438 393.269531 490.09375 C 393.089844 489.660156 393 489.210938 393 488.742188 C 393 488.273438 393.089844 487.824219 393.269531 487.394531 C 393.449219 486.960938 393.703125 486.578125 394.035156 486.25 C 394.363281 485.917969 394.746094 485.664062 395.179688 485.484375 C 395.609375 485.304688 396.058594 485.214844 396.527344 485.214844 C 396.996094 485.214844 397.445312 485.304688 397.878906 485.484375 C 398.308594 485.664062 398.691406 485.917969 399.023438 486.25 C 399.351562 486.578125 399.605469 486.960938 399.785156 487.394531 C 399.964844 487.824219 400.054688 488.273438 400.054688 488.742188 Z M 400.054688 488.742188 "/>
<path style=" stroke:none;fill-rule:nonzero;fill:rgb(100%,100%,100%);fill-opacity:1;" d="M 405.207031 514.632812 C 405.207031 514.921875 405.179688 515.210938 405.121094 515.496094 C 405.066406 515.78125 404.980469 516.058594 404.871094 516.324219 C 404.757812 516.59375 404.625 516.847656 404.460938 517.089844 C 404.300781 517.332031 404.117188 517.554688 403.914062 517.757812 C 403.707031 517.964844 403.484375 518.148438 403.242188 518.308594 C 403 518.472656 402.746094 518.605469 402.476562 518.71875 C 402.210938 518.828125 401.933594 518.914062 401.648438 518.96875 C 401.363281 519.027344 401.074219 519.054688 400.785156 519.054688 C 400.496094 519.054688 400.207031 519.027344 399.921875 518.96875 C 399.636719 518.914062 399.363281 518.828125 399.09375 518.71875 C 398.824219 518.605469 398.570312 518.472656 398.328125 518.308594 C 398.085938 518.148438 397.863281 517.964844 397.660156 517.757812 C 397.453125 517.554688 397.269531 517.332031 397.109375 517.089844 C 396.949219 516.847656 396.8125 516.59375 396.699219 516.324219 C 396.589844 516.058594 396.503906 515.78125 396.449219 515.496094 C 396.390625 515.210938 396.363281 514.921875 396.363281 514.632812 C 396.363281 514.34375 396.390625 514.054688 396.449219 513.769531 C 396.503906 513.484375 396.589844 513.207031 396.699219 512.941406 C 396.8125 512.671875 396.949219 512.417969 397.109375 512.175781 C 397.269531 511.933594 397.453125 511.710938 397.660156 511.503906 C 397.863281 511.300781 398.085938 511.117188 398.328125 510.957031 C 398.570312 510.792969 398.824219 510.65625 399.09375 510.546875 C 399.363281 510.4375 399.636719 510.351562 399.921875 510.296875 C 400.207031 510.238281 400.496094 510.210938 400.785156 510.210938 C 401.074219 510.210938 401.363281 510.238281 401.648438 510.296875 C 401.933594 510.351562 402.210938 510.4375 402.476562 510.546875 C 402.746094 510.65625 403 510.792969 403.242188 510.957031 C 403.484375 511.117188 403.707031 511.300781 403.914062 511.503906 C 404.117188 511.710938 404.300781 511.933594 404.460938 512.175781 C 404.625 512.417969 404.757812 512.671875 404.871094 512.941406 C 404.980469 513.207031 405.066406 513.484375 405.121094 513.769531 C 405.179688 514.054688 405.207031 514.34375 405.207031 514.632812 Z M 405.207031 514.632812 "/>
<g clip-path="url(#clip8)" clip-rule="nonzero">
<path style=" stroke:none;fill-rule:nonzero;fill:rgb(24.708557%,23.919678%,33.729553%);fill-opacity:1;" d="M 496.246094 544.851562 L 322.324219 544.851562 C 322.121094 544.851562 321.945312 544.78125 321.804688 544.636719 C 321.660156 544.492188 321.585938 544.320312 321.585938 544.113281 C 321.585938 543.910156 321.660156 543.738281 321.804688 543.59375 C 321.945312 543.449219 322.121094 543.378906 322.324219 543.378906 L 496.246094 543.378906 C 496.449219 543.378906 496.621094 543.449219 496.765625 543.59375 C 496.910156 543.738281 496.980469 543.910156 496.980469 544.113281 C 496.980469 544.320312 496.910156 544.492188 496.765625 544.636719 C 496.621094 544.78125 496.449219 544.851562 496.246094 544.851562 Z M 496.246094 544.851562 "/>
</g>
</g>
</defs>
<g id="surface1">
<use xlink:href="#surface8" transform="matrix(1,0,0,1,3,4)" mask="url(#mask0)"/>
</g>
</svg>
